<mxfile>
    <diagram id="LywhP6cWtTAeKPSWornb" name="Page-1">
        <mxGraphModel dx="1113" dy="787" grid="1" gridSize="10" guides="1" tooltips="1" connect="1" arrows="1" fold="1" page="1" pageScale="1" pageWidth="827" pageHeight="1169" math="0" shadow="0">
            <root>
                <mxCell id="0"/>
                <mxCell id="1" parent="0"/>
                <mxCell id="14" style="edgeStyle=orthogonalEdgeStyle;rounded=0;orthogonalLoop=1;jettySize=auto;html=1;exitX=0.5;exitY=1;exitDx=0;exitDy=0;entryX=0.5;entryY=0;entryDx=0;entryDy=0;fontFamily=Georgia;fontSize=18;" edge="1" parent="1" source="2" target="3">
                    <mxGeometry relative="1" as="geometry"/>
                </mxCell>
                <mxCell id="2" value="&lt;font style=&quot;font-size: 18px;&quot;&gt;&lt;span style=&quot;font-size: 18px&quot;&gt;i &lt;/span&gt;&lt;span style=&quot;font-size: 18px&quot;&gt;&lt;span style=&quot;font-size: 18px;&quot;&gt;ðŸ ”&lt;/span&gt;&lt;/span&gt;&lt;span style=&quot;font-size: 18px&quot;&gt;&amp;nbsp;N&lt;/span&gt;&lt;/font&gt;" style="rounded=1;whiteSpace=wrap;html=1;fontStyle=3;fontFamily=Georgia;fontSize=18;" vertex="1" parent="1">
                    <mxGeometry x="260" y="70" width="120" height="60" as="geometry"/>
                </mxCell>
                <mxCell id="13" style="edgeStyle=orthogonalEdgeStyle;rounded=0;orthogonalLoop=1;jettySize=auto;html=1;exitX=0.5;exitY=1;exitDx=0;exitDy=0;entryX=0.5;entryY=0;entryDx=0;entryDy=0;fontFamily=Georgia;fontSize=18;" edge="1" parent="1" source="3" target="8">
                    <mxGeometry relative="1" as="geometry"/>
                </mxCell>
                <mxCell id="3" value="&lt;font style=&quot;font-size: 18px;&quot;&gt;&lt;span style=&quot;font-size: 18px&quot;&gt;j &lt;/span&gt;&lt;span style=&quot;font-size: 18px&quot;&gt;&lt;span style=&quot;font-size: 18px;&quot;&gt;ðŸ ”&lt;/span&gt;&lt;/span&gt;&lt;span style=&quot;font-size: 18px&quot;&gt;&amp;nbsp;0&lt;/span&gt;&lt;/font&gt;" style="rounded=1;whiteSpace=wrap;html=1;fontStyle=3;fontFamily=Georgia;fontSize=18;" vertex="1" parent="1">
                    <mxGeometry x="260" y="150" width="120" height="60" as="geometry"/>
                </mxCell>
                <mxCell id="11" style="edgeStyle=orthogonalEdgeStyle;orthogonalLoop=1;jettySize=auto;html=1;exitX=0.5;exitY=1;exitDx=0;exitDy=0;entryX=0.5;entryY=0;entryDx=0;entryDy=0;fontFamily=Georgia;fontSize=18;curved=1;" edge="1" parent="1" source="4" target="5">
                    <mxGeometry relative="1" as="geometry"/>
                </mxCell>
                <mxCell id="4" value="&lt;font style=&quot;font-size: 16px&quot;&gt;T&amp;nbsp;&lt;span style=&quot;font-size: 18px&quot;&gt;ðŸ ”&lt;/span&gt;&amp;nbsp;A&lt;sub&gt;j+1&lt;br style=&quot;font-size: 16px&quot;&gt;&lt;/sub&gt;A&lt;sub&gt;j+1&lt;/sub&gt;&lt;span style=&quot;font-size: 18px&quot;&gt;ðŸ ”&lt;/span&gt;A&lt;sub&gt;j&lt;br style=&quot;font-size: 16px&quot;&gt;&lt;/sub&gt;A&lt;sub&gt;j+1&lt;/sub&gt;&lt;span style=&quot;font-size: 18px&quot;&gt;ðŸ ”&lt;/span&gt;&amp;nbsp;T&lt;/font&gt;" style="rounded=1;whiteSpace=wrap;html=1;fontStyle=3;fontFamily=Georgia;fontSize=18;align=center;" vertex="1" parent="1">
                    <mxGeometry x="400" y="300" width="120" height="90" as="geometry"/>
                </mxCell>
                <mxCell id="25" style="edgeStyle=orthogonalEdgeStyle;curved=1;orthogonalLoop=1;jettySize=auto;html=1;exitX=0.5;exitY=1;exitDx=0;exitDy=0;entryX=0.5;entryY=0;entryDx=0;entryDy=0;fontFamily=Georgia;fontSize=18;" edge="1" parent="1" source="5" target="16">
                    <mxGeometry relative="1" as="geometry"/>
                </mxCell>
                <mxCell id="5" value="&lt;font style=&quot;font-size: 18px;&quot;&gt;&lt;span style=&quot;font-size: 18px&quot;&gt;j &lt;/span&gt;&lt;span style=&quot;font-size: 18px&quot;&gt;&lt;span style=&quot;font-size: 18px;&quot;&gt;ðŸ ”&lt;/span&gt;&lt;/span&gt;&lt;span style=&quot;font-size: 18px&quot;&gt;&amp;nbsp;j+1&lt;/span&gt;&lt;/font&gt;" style="rounded=1;whiteSpace=wrap;html=1;fontStyle=3;fontFamily=Georgia;fontSize=18;" vertex="1" parent="1">
                    <mxGeometry x="260" y="430" width="120" height="60" as="geometry"/>
                </mxCell>
                <mxCell id="30" style="edgeStyle=orthogonalEdgeStyle;curved=1;orthogonalLoop=1;jettySize=auto;html=1;exitX=0.5;exitY=1;exitDx=0;exitDy=0;entryX=0.5;entryY=0;entryDx=0;entryDy=0;fontFamily=Georgia;fontSize=18;" edge="1" parent="1" source="7" target="17">
                    <mxGeometry relative="1" as="geometry"/>
                </mxCell>
                <mxCell id="7" value="&lt;font style=&quot;font-size: 18px;&quot;&gt;&lt;span style=&quot;font-size: 18px&quot;&gt;i &lt;/span&gt;&lt;span style=&quot;font-size: 18px&quot;&gt;&lt;span style=&quot;font-size: 18px;&quot;&gt;ðŸ ”&lt;/span&gt;&lt;/span&gt;&lt;span style=&quot;font-size: 18px&quot;&gt;&amp;nbsp;i-1&lt;/span&gt;&lt;/font&gt;" style="rounded=1;whiteSpace=wrap;html=1;fontStyle=3;fontFamily=Georgia;fontSize=18;" vertex="1" parent="1">
                    <mxGeometry x="260" y="600" width="120" height="60" as="geometry"/>
                </mxCell>
                <mxCell id="12" style="edgeStyle=orthogonalEdgeStyle;orthogonalLoop=1;jettySize=auto;html=1;exitX=1;exitY=0.5;exitDx=0;exitDy=0;entryX=0.5;entryY=0;entryDx=0;entryDy=0;fontFamily=Georgia;fontSize=18;curved=1;" edge="1" parent="1" source="8" target="4">
                    <mxGeometry relative="1" as="geometry"/>
                </mxCell>
                <mxCell id="24" style="edgeStyle=orthogonalEdgeStyle;curved=1;orthogonalLoop=1;jettySize=auto;html=1;exitX=0.5;exitY=1;exitDx=0;exitDy=0;entryX=0.5;entryY=0;entryDx=0;entryDy=0;fontFamily=Georgia;fontSize=18;" edge="1" parent="1" source="8" target="5">
                    <mxGeometry relative="1" as="geometry"/>
                </mxCell>
                <mxCell id="8" value="A&lt;sub style=&quot;font-size: 18px;&quot;&gt;j&lt;/sub&gt;&amp;gt; A&lt;sub style=&quot;font-size: 18px;&quot;&gt;j+1&lt;/sub&gt;" style="rhombus;whiteSpace=wrap;html=1;fontFamily=Georgia;fontSize=18;fontStyle=3" vertex="1" parent="1">
                    <mxGeometry x="270" y="230" width="100" height="100" as="geometry"/>
                </mxCell>
                <mxCell id="26" style="edgeStyle=orthogonalEdgeStyle;curved=1;orthogonalLoop=1;jettySize=auto;html=1;exitX=0.5;exitY=1;exitDx=0;exitDy=0;entryX=0.5;entryY=0;entryDx=0;entryDy=0;fontFamily=Georgia;fontSize=18;" edge="1" parent="1" source="16" target="7">
                    <mxGeometry relative="1" as="geometry"/>
                </mxCell>
                <mxCell id="28" style="edgeStyle=orthogonalEdgeStyle;curved=1;orthogonalLoop=1;jettySize=auto;html=1;exitX=0;exitY=0.5;exitDx=0;exitDy=0;entryX=0;entryY=0.5;entryDx=0;entryDy=0;fontFamily=Georgia;fontSize=18;" edge="1" parent="1" source="16" target="8">
                    <mxGeometry relative="1" as="geometry">
                        <Array as="points">
                            <mxPoint x="190" y="545"/>
                            <mxPoint x="190" y="280"/>
                        </Array>
                    </mxGeometry>
                </mxCell>
                <mxCell id="16" value="j &amp;lt; i+1" style="rhombus;whiteSpace=wrap;html=1;fontFamily=Georgia;fontSize=18;fontStyle=3" vertex="1" parent="1">
                    <mxGeometry x="280" y="505" width="80" height="80" as="geometry"/>
                </mxCell>
                <mxCell id="29" style="edgeStyle=orthogonalEdgeStyle;curved=1;orthogonalLoop=1;jettySize=auto;html=1;exitX=0;exitY=0.5;exitDx=0;exitDy=0;entryX=0;entryY=0.5;entryDx=0;entryDy=0;fontFamily=Georgia;fontSize=18;" edge="1" parent="1" source="17" target="3">
                    <mxGeometry relative="1" as="geometry">
                        <Array as="points">
                            <mxPoint x="140" y="720"/>
                            <mxPoint x="140" y="180"/>
                        </Array>
                    </mxGeometry>
                </mxCell>
                <mxCell id="34" style="edgeStyle=orthogonalEdgeStyle;curved=1;orthogonalLoop=1;jettySize=auto;html=1;exitX=0.5;exitY=1;exitDx=0;exitDy=0;entryX=0.5;entryY=0;entryDx=0;entryDy=0;fontFamily=Georgia;fontSize=18;" edge="1" parent="1" source="17" target="33">
                    <mxGeometry relative="1" as="geometry"/>
                </mxCell>
                <mxCell id="17" value="i â‰¥ 0" style="rhombus;whiteSpace=wrap;html=1;fontFamily=Georgia;fontSize=18;fontStyle=3" vertex="1" parent="1">
                    <mxGeometry x="280" y="680" width="80" height="80" as="geometry"/>
                </mxCell>
                <mxCell id="32" style="edgeStyle=orthogonalEdgeStyle;curved=1;orthogonalLoop=1;jettySize=auto;html=1;exitX=0.5;exitY=1;exitDx=0;exitDy=0;entryX=0.5;entryY=0;entryDx=0;entryDy=0;fontFamily=Georgia;fontSize=18;" edge="1" parent="1" source="31" target="2">
                    <mxGeometry relative="1" as="geometry"/>
                </mxCell>
                <mxCell id="31" value="&lt;b&gt;Start&lt;/b&gt;" style="ellipse;whiteSpace=wrap;html=1;aspect=fixed;fontFamily=Georgia;fontSize=18;" vertex="1" parent="1">
                    <mxGeometry x="295" width="50" height="50" as="geometry"/>
                </mxCell>
                <mxCell id="33" value="&lt;b&gt;End&lt;/b&gt;" style="ellipse;whiteSpace=wrap;html=1;aspect=fixed;fontFamily=Georgia;fontSize=18;" vertex="1" parent="1">
                    <mxGeometry x="295" y="780" width="50" height="50" as="geometry"/>
                </mxCell>
            </root>
        </mxGraphModel>
    </diagram>
</mxfile>